<?xml version="1.0" encoding="utf-8"?>
<!-- Generator: Adobe Illustrator 27.2.0, SVG Export Plug-In . SVG Version: 6.00 Build 0)  -->
<svg version="1.1" id="Layer_1" xmlns="http://www.w3.org/2000/svg" xmlns:xlink="http://www.w3.org/1999/xlink" x="0px" y="0px"
	 viewBox="0 0 1717 374.3" style="enable-background:new 0 0 1717 374.3;" xml:space="preserve">
<style type="text/css">
	.st0{fill:none;}
	.st1{fill:#FFFFFF;}
</style>
<g>
	<path d="M599.5,290.9c18.9-2.4,25.2-7.2,38.4-41.1c16.5-42.9,33-90,46.2-127.2c8.1-23.1,2.7-28.2-15-30.3l1.5-5.1
		c6.6,0.3,14.4,0.6,23.4,0.6c5.7,0,15.6-0.3,21.6-0.6c1.2,55.8,3,109.2,5.1,157.2c31.2-53.1,56.7-100.8,88.2-156.9
		c4.5,0.3,12.9,0.3,21.9,0.3c10.2,0,16.5-0.3,22.5-0.6l-0.9,5.1c-17.7,0.6-23.7,10.8-29.1,35.7c-10.2,46.8-16.5,78.3-25.5,123.9
		c-6.9,35.1-3,38.1,13.5,39l-1.2,5.1c-11.7-0.6-21.3-0.9-33-0.9c-12.3,0-23.4,0.3-34.8,0.9l1.2-5.1c14.7-1.5,22.5-4.2,30.3-39
		c9.3-42.3,18-86.4,27-131.7h-0.6c-33,57.3-65.1,115.2-98.7,174.9l-3.3-1.2c-1.5-57-3-114-5.4-171h-0.3
		c-13.5,38.4-30.9,90.3-42.9,127.8c-10.5,32.1-5.7,37.8,12.6,40.2l-1.5,5.1c-11.4-0.3-22.5-0.9-33.9-0.9s-15.9,0.6-29.1,0.9
		L599.5,290.9z"/>
	<path d="M830.8,269.6c-0.6-11.1,2.4-26.7,5.7-38.4c-2.1-0.3-5.7-0.3-7.8-0.9l0.9-2.7c2.7,0.3,6.3,0,8.4-0.6
		c5.1-13.8,15.6-31.2,29.1-45c11.7-11.7,25.8-19.5,36-19.5s16.2,15.9,14.7,30.3c-0.9,7.8-3.3,12.9-13.2,19.2
		c-11.1,6.9-30,13.8-48,17.7c-3.3,10.2-4.5,21-4.5,29.7c-0.9,15.6,4.5,23.1,13.8,23.1c15.6,0,25.8-15.3,33.3-39.9l3.3-0.3
		c-5.4,35.4-21,56.7-44.1,56.7C842.2,299,831.7,290.6,830.8,269.6L830.8,269.6z M886.6,213.8c9-5.4,10.5-9.3,11.1-16.2
		c1.2-12.9-2.1-24.9-6.9-24.9c-11.4,0-26.4,29.1-33,52.5C866.5,222.8,877.3,219.2,886.6,213.8L886.6,213.8z"/>
	<path d="M929.2,298.4c-2.4-0.3-7.8-9-1.5-30.6c10.5-36,21.6-73.2,24.3-88.5c-15.9-0.3-24.9,25.5-24.6,39.6l-3.9,1.2
		c0.3-36.3,17.1-56.7,40.2-57c4.5,0,9.6,0.6,14.7,2.7l-31.5,101.4l0.6,0.3c17.7-42,53.1-105,71.7-104.7c6,0,15.9,9.3,15.9,14.7
		c0,9.6-15.3,52.5-21,72.6c-3.3,11.4-6.3,23.1-7.8,30.6c22.8,0.6,26.4-29.4,27-39.6l3.6-0.9c1.5,32.4-15.3,58.2-41.7,58.2
		c-13.5,0-15.3-6.6-6.6-33.3c8.4-25.5,16.2-46.5,23.7-75.6c1.8-6.6,0.3-7.2-1.2-8.4c-3.3,0-9.6,6.6-12.6,10.5
		c-19.5,22.8-47.4,72-61.2,108L929.2,298.4L929.2,298.4z"/>
	<path d="M1059.7,298.4c-2.4-0.3-7.8-9-1.5-30.6c10.5-36,21.6-73.2,24.3-88.5c-15.9-0.3-24.9,25.5-24.6,39.6l-3.9,1.2
		c0.3-36.3,17.1-56.7,40.2-57c4.5,0,9.6,0.6,14.7,2.7l-31.5,101.4l0.6,0.3c17.7-42,53.1-105,71.7-104.7c6,0,15.9,9.3,15.9,14.7
		c0,9.6-15.3,52.5-21,72.6c-3.3,11.4-6.3,23.1-7.8,30.6c22.8,0.6,26.4-29.4,27-39.6l3.6-0.9c1.5,32.4-15.3,58.2-41.7,58.2
		c-13.5,0-15.3-6.6-6.6-33.3c8.4-25.5,16.2-46.5,23.7-75.6c1.8-6.6,0.3-7.2-1.2-8.4c-3.3,0-9.6,6.6-12.6,10.5
		c-19.5,22.8-47.4,72-61.2,108L1059.7,298.4z"/>
	<path d="M1209.4,299.6c-15.9,0-30-12.3-30-40.5c0-12.9,2.7-29.1,7.8-42.9c12.3-34.5,34.5-53.7,57-53.7c19.5,0,27.9,19.5,27.9,42
		c0,10.5-1.5,22.8-5.1,34.5C1256.2,274.4,1229.8,299.6,1209.4,299.6L1209.4,299.6z M1209.4,293.6c13.2,0,27.6-30.6,35.7-59.1
		c4.5-16.2,8.7-35.7,8.7-51c0-9-3.3-15.3-9.6-15.3c-12.6,0-26.4,26.1-34.5,50.7c-6.9,20.4-11.1,43.2-11.1,57.9
		C1198.6,287.3,1202.2,293.6,1209.4,293.6L1209.4,293.6z"/>
	<path d="M1273.3,290.9c17.4-1.2,23.4-6,31.2-38.7c9.9-42.3,18.6-79.5,28.2-121.2c7.5-31.5,4.5-37.5-13.8-38.7l1.2-5.1
		c11.7,0.6,21,0.9,32.7,0.9c12.9,0,24-0.3,35.7-0.9l-1.2,5.1c-18.3,1.8-23.1,7.5-30.3,38.7c-4.2,17.4-12.6,52.5-12.6,52.5h71.4
		c0,0,9-37.2,12.9-54.9c6.9-29.1,1.2-35.4-14.7-36.3l1.2-5.1c12,0.6,19.8,0.9,31.8,0.9s24-0.3,36.6-0.9l-1.2,5.1
		c-17.1,0.9-22.8,7.2-29.7,36.3c-9,38.4-19.8,84.3-28.8,123.3c-8.1,34.8-3,38.1,13.8,39l-1.2,5.1c-12-0.6-22.5-0.9-34.5-0.9
		c-12.9,0-23.1,0.3-36,0.9l1.2-5.1c16.5-1.5,24.3-4.2,32.4-39c4.8-19.5,14.4-60.6,14.4-60.6h-71.4c0,0-9.3,39.9-14.1,61.2
		c-7.5,33.3-1.8,37.5,14.1,38.4l-1.2,5.1c-10.2-0.3-21.6-0.9-34.2-0.9c-11.7,0-23.4,0.3-35.1,0.9L1273.3,290.9z"/>
	<path d="M1483.6,299.6c-15.9,0-30-12.3-30-40.5c0-12.9,2.7-29.1,7.8-42.9c12.3-34.5,34.5-53.7,57-53.7c19.5,0,27.9,19.5,27.9,42
		c0,10.5-1.5,22.8-5.1,34.5C1530.4,274.4,1504,299.6,1483.6,299.6L1483.6,299.6z M1483.6,293.6c13.2,0,27.6-30.6,35.7-59.1
		c4.5-16.2,8.7-35.7,8.7-51c0-9-3.3-15.3-9.6-15.3c-12.6,0-26.4,26.1-34.5,50.7c-6.9,20.4-11.1,43.2-11.1,57.9
		C1472.8,287.3,1476.4,293.6,1483.6,293.6L1483.6,293.6z"/>
	<path d="M1544.2,277.4c0-6.6,4.2-12.6,9.3-14.1l3.3,0.9c0.9,18,9,28.2,20.7,28.2s17.1-8.7,17.4-19.2s-5.4-21.3-12.9-34.8
		c-9.9-17.7-13.2-28.8-13.8-41.4c0.3-19.8,13.5-34.2,36-34.2c14.1,0,25.5,6.6,25.5,19.8c0,5.7-4.2,12-11.7,12.6
		c-0.9-9.6-5.1-26.4-17.7-26.4c-10.5,0-14.4,8.1-14.4,17.1c0.6,12.9,6.9,21.9,12.6,33.3c8.1,15,13.8,27.3,13.5,39.6
		c0,22.5-15.6,39.3-38.1,39.9C1559.5,299,1544.5,293.3,1544.2,277.4L1544.2,277.4z"/>
	<path d="M1635.7,266.6c9-31.8,17.4-61.2,25.5-87.9l-16.5-3l1.2-3.6l18-3.3c3.9-11.7,8.4-26.1,12.3-37.2c1.8-4.8,3.6-6,8.4-8.7
		c7.2-3.9,14.4-6.6,19.8-9.3l1.8,3.9c-4.8,3.6-8.1,9.9-10.5,16.8c-3.9,10.8-7.5,23.7-10.8,34.5l32.1,2.1l-1.2,3.9l-34.2,3.9
		c-8.4,27.6-25.8,87.3-28.5,103.5c29.1,0.6,34.2-26.1,34.2-42.6l3.6-0.9c3.3,30.6-7.8,60.3-41.7,60.3
		C1631.8,299,1628.2,293,1635.7,266.6L1635.7,266.6z"/>
</g>
<g>
	<path d="M187.1,374.3C83.9,374.3,0,290.4,0,187.2S83.9,0.2,187.1,0.2v18c-93.2,0-169,75.8-169,169s75.8,169,169,169L187.1,374.3
		L187.1,374.3z"/>
	<g>
		<path class="st0" d="M187.1,365.3c-64.4,0-97.2-74.4-97.2-177.5S122.7,9.2,187.1,9.2"/>
		<path d="M187.1,374.3c-34.3,0-62.2-19-80.8-55c-16.7-32.3-25.5-77.8-25.5-131.5s8.8-99.5,25.5-132.1
			c18.6-36.4,46.5-55.6,80.8-55.6v18c-27.4,0-49.2,15.4-64.7,45.8C107,94,98.8,136.8,98.8,187.8s8.1,93.5,23.5,123.2
			c15.5,30,37.3,45.2,64.8,45.2V374.3z"/>
	</g>
	<g>
		<path d="M354.7,165.4c5.9-0.9,12-1.2,18.1-0.9C361.5,72.1,282.5,0.2,187.1,0.2v18C272.9,18.2,343.9,82.5,354.7,165.4L354.7,165.4z
			"/>
		<path d="M194.3,374l-0.4-17.9c68.6-2.7,112.1-49.9,126.4-65.4c48-52.1,99.1-54,123.2-52.6c-13.8-31.9-31.2-52.1-52-60.4
			c-31.2-12.4-65.4,4.6-85.8,14.7c-2.1,1-3.5,1.4-5.4,2.3l-8.3-15.7c1.8-0.9,3.7-1.8,5.7-2.8c23.1-11.5,61.7-30.6,100.4-15.3
			c28.2,11.2,50.7,39,67,82.7c1.1,3,0.7,6.4-1.1,9.1c-1.8,2.7-4.9,4.3-8.1,4.3c-1.6,0-3.5-0.1-6.1-0.4
			c-18.6-1.6-68.1-5.9-116.3,46.3C318.1,319.8,270.4,371,194.3,374L194.3,374z"/>
	</g>
	<circle cx="374.1" cy="203" r="15.8"/>
	<path class="st0" d="M194.3,9c64.4,0,97.3,74.4,97.3,177.5s-32.9,178.6-97.2,178.6"/>
	<rect x="4.5" y="178" transform="matrix(1 -2.792512e-03 2.792512e-03 1 -0.5218 0.2682)" width="182.6" height="18"/>
	<rect x="33.7" y="84.3" width="153.4" height="18"/>
	<rect x="33.7" y="271" width="153.4" height="18"/>
	<rect x="178" y="11.6" width="18" height="350.9"/>
	<g>
		<path class="st1" d="M427.4,281.4c9.4-3.9,19.8-10.1,28.1-20.5c5.2-6.6,6.2-10.6,11.3-17c5.8-7.1,14.7-14.6,29.3-19.9"/>
		<path d="M430.9,289.8l-6.9-16.7c10.3-4.3,18.5-10.2,24.5-17.8c2.2-2.8,3.4-4.9,4.9-7.4c1.6-2.8,3.4-5.9,6.5-9.6
			c8.1-10,19.3-17.6,33.3-22.7l6.1,16.9c-10.8,3.9-19.4,9.7-25.4,17.1c-2.2,2.7-3.4,4.9-4.9,7.4c-1.6,2.7-3.4,5.8-6.3,9.5
			C454.7,276.5,444,284.3,430.9,289.8L430.9,289.8z"/>
	</g>
	<g>
		<path d="M558.5,196.9l-47.8,46.5L490.8,199L558.5,196.9 M609.4,175.3L460.3,180l43.9,97.7L609.4,175.3L609.4,175.3L609.4,175.3z"
			/>
	</g>
</g>
<g>
	<path d="M263.3,336.9c-9.8,6.1-22.6,14.2-67.2,19.1l0.1-0.3c-3.1,0.4-6.1,0.6-9.2,0.6v18C215,374.3,243.6,361.4,263.3,336.9z"/>
	<path d="M259.1,63.2c15.4,29.7,23.5,72.2,23.5,123.2c0,2.8,0,5.6-0.1,8.3h18c0-2.8,0.1-5.5,0.1-8.3c0-53.8-8.8-99.2-25.5-131.5
		c-18.6-36-46.5-55-80.8-55v18C221.8,18,243.6,33.2,259.1,63.2z"/>
	<polygon points="187.1,374.3 187.1,374.3 187.1,374.3 	"/>
</g>
</svg>
